<svg width="407" height="19" viewBox="0 0 407 19" fill="none" xmlns="http://www.w3.org/2000/svg">
<path fill-rule="evenodd" clip-rule="evenodd" d="M404.908 2.60212C404.908 2.60219 404.905 2.60156 404.899 2.60002C404.905 2.60128 404.908 2.60204 404.908 2.60212ZM269.805 7.23644C273.102 7.06915 276.398 6.90385 279.694 6.74103C279.749 6.73832 280.365 6.70713 281.463 6.6515C294.852 5.97321 379.954 1.66208 394.337 1.05904C395.154 1.0248 396.382 0.877514 397.781 0.694831C398.087 0.654962 398.399 0.613557 398.715 0.571726C399.816 0.42577 400.956 0.274626 401.971 0.165435C403.217 0.0314725 404.48 -0.066434 405.262 0.0556398C405.463 0.0870226 405.758 0.149542 406.036 0.307819C406.34 0.47999 406.796 0.882669 406.808 1.57257C406.817 2.13186 406.511 2.52327 406.362 2.69234C406.181 2.89688 405.958 3.07449 405.739 3.22767C403.718 4.64259 401.339 4.89514 399.135 4.89421C398.29 4.89386 397.422 4.85459 396.591 4.81694C396.338 4.80549 396.089 4.7942 395.844 4.7842C394.772 4.7403 393.766 4.7193 392.82 4.79284C381.152 5.69987 369.472 6.50424 357.781 7.13431C343.444 7.90696 325.408 8.54435 305.101 9.06851C305.095 9.11185 305.088 9.15407 305.08 9.19499C304.947 9.86128 304.66 10.4462 304.206 10.9117C303.758 11.3709 303.212 11.6477 302.659 11.809C301.6 12.1182 300.355 12.0482 299.215 11.8976C298.333 11.7811 297.385 11.5953 296.491 11.4203C296.21 11.3653 295.935 11.3113 295.669 11.2609C294.504 11.0405 293.508 10.8859 292.724 10.8959C284.14 11.0053 262.23 10.9898 251.468 10.9821C249.733 10.9809 248.288 10.9799 247.235 10.9796C241.573 11.2781 235.911 11.5792 230.247 11.8803C168.057 15.1865 105.743 18.4993 43.4718 18.4993C42.7624 18.4993 42.1873 17.9242 42.1873 17.2147C42.1873 16.5053 42.7624 15.9302 43.4718 15.9302C93.9777 15.9302 144.503 13.7489 195.008 11.1588C162.05 11.3867 129.105 11.8304 96.1352 12.4833C95.4624 12.4966 94.9002 11.9902 94.8321 11.3328C58.5132 11.3959 28.6826 11.3198 12.9833 11.2223C8.62695 11.1953 5.35561 11.1666 3.33491 11.1387C2.32881 11.1248 1.61991 11.1109 1.24172 11.0971C1.1475 11.0937 1.06271 11.0899 0.994855 11.0854C0.962937 11.0833 0.919218 11.08 0.874015 11.0747C0.8496 11.0717 0.797854 11.064 0.765149 11.058C0.706837 11.0456 0.515081 10.9843 0.384329 10.9222C-0.063539 10.5176 -0.163184 9.24173 0.317934 8.70237C0.470546 8.62056 0.694193 8.54322 0.759103 8.52894C0.842272 8.51264 0.917319 8.50656 0.940339 8.5047L0.942119 8.50456C1.01022 8.49902 1.09385 8.49522 1.17792 8.49217C2.5106 8.4439 9.50783 8.41051 23.4193 8.41051C31.0349 8.41051 38.6503 8.41193 46.2656 8.41334C94.6867 8.42235 143.102 8.43135 191.517 8.07634C218.613 7.87765 226.266 7.77352 236.784 7.63043C243.958 7.53282 252.465 7.41709 269.384 7.24085C269.524 7.23939 269.665 7.23792 269.805 7.23644Z" fill="#F4B400"/>
</svg>
